<mxfile host="Electron" modified="2024-05-11T12:50:24.017Z" agent="Mozilla/5.0 (Windows NT 10.0; Win64; x64) AppleWebKit/537.36 (KHTML, like Gecko) draw.io/24.2.5 Chrome/120.0.6099.109 Electron/28.1.0 Safari/537.36" etag="mN9IePiF3wpmeMLg7Oe4" version="24.2.5" type="device">
  <diagram name="Page-1" id="lEfu-DSpLeHncfPjN8Wk">
    <mxGraphModel dx="512" dy="613" grid="1" gridSize="10" guides="1" tooltips="1" connect="1" arrows="1" fold="1" page="1" pageScale="1" pageWidth="827" pageHeight="1169" math="0" shadow="0">
      <root>
        <mxCell id="0" />
        <mxCell id="1" parent="0" />
        <mxCell id="PMYgWYwYD3wslZIbUrf8-12" style="edgeStyle=none;rounded=0;orthogonalLoop=1;jettySize=auto;html=1;exitX=0.5;exitY=1;exitDx=0;exitDy=0;strokeColor=default;align=center;verticalAlign=middle;fontFamily=Helvetica;fontSize=11;fontColor=default;labelBackgroundColor=default;endArrow=classic;entryX=0.25;entryY=0;entryDx=0;entryDy=0;" edge="1" parent="1" source="PMYgWYwYD3wslZIbUrf8-4" target="PMYgWYwYD3wslZIbUrf8-11">
          <mxGeometry relative="1" as="geometry" />
        </mxCell>
        <mxCell id="PMYgWYwYD3wslZIbUrf8-4" value="TaskClass" style="rounded=0;whiteSpace=wrap;html=1;fontFamily=Helvetica;fontSize=11;fontColor=default;labelBackgroundColor=default;" vertex="1" parent="1">
          <mxGeometry x="480" y="280" width="80" height="40" as="geometry" />
        </mxCell>
        <mxCell id="PMYgWYwYD3wslZIbUrf8-13" style="edgeStyle=none;rounded=0;orthogonalLoop=1;jettySize=auto;html=1;exitX=0.5;exitY=1;exitDx=0;exitDy=0;entryX=0.5;entryY=0;entryDx=0;entryDy=0;strokeColor=default;align=center;verticalAlign=middle;fontFamily=Helvetica;fontSize=11;fontColor=default;labelBackgroundColor=default;endArrow=classic;" edge="1" parent="1" source="PMYgWYwYD3wslZIbUrf8-5" target="PMYgWYwYD3wslZIbUrf8-11">
          <mxGeometry relative="1" as="geometry" />
        </mxCell>
        <mxCell id="PMYgWYwYD3wslZIbUrf8-5" value="ConfigClass" style="rounded=0;whiteSpace=wrap;html=1;fontFamily=Helvetica;fontSize=11;fontColor=default;labelBackgroundColor=default;" vertex="1" parent="1">
          <mxGeometry x="600" y="280" width="80" height="40" as="geometry" />
        </mxCell>
        <mxCell id="PMYgWYwYD3wslZIbUrf8-14" style="edgeStyle=none;rounded=0;orthogonalLoop=1;jettySize=auto;html=1;exitX=0.5;exitY=1;exitDx=0;exitDy=0;entryX=0.75;entryY=0;entryDx=0;entryDy=0;strokeColor=default;align=center;verticalAlign=middle;fontFamily=Helvetica;fontSize=11;fontColor=default;labelBackgroundColor=default;endArrow=classic;" edge="1" parent="1" source="PMYgWYwYD3wslZIbUrf8-6" target="PMYgWYwYD3wslZIbUrf8-11">
          <mxGeometry relative="1" as="geometry" />
        </mxCell>
        <mxCell id="PMYgWYwYD3wslZIbUrf8-6" value="RobotClass" style="rounded=0;whiteSpace=wrap;html=1;fontFamily=Helvetica;fontSize=11;fontColor=default;labelBackgroundColor=default;" vertex="1" parent="1">
          <mxGeometry x="720" y="280" width="80" height="40" as="geometry" />
        </mxCell>
        <mxCell id="PMYgWYwYD3wslZIbUrf8-8" style="edgeStyle=none;rounded=0;orthogonalLoop=1;jettySize=auto;html=1;exitX=0.5;exitY=1;exitDx=0;exitDy=0;entryX=0.5;entryY=0;entryDx=0;entryDy=0;strokeColor=default;align=center;verticalAlign=middle;fontFamily=Helvetica;fontSize=11;fontColor=default;labelBackgroundColor=default;endArrow=classic;" edge="1" parent="1" source="PMYgWYwYD3wslZIbUrf8-7" target="PMYgWYwYD3wslZIbUrf8-5">
          <mxGeometry relative="1" as="geometry" />
        </mxCell>
        <mxCell id="PMYgWYwYD3wslZIbUrf8-9" style="edgeStyle=none;rounded=0;orthogonalLoop=1;jettySize=auto;html=1;exitX=0.25;exitY=1;exitDx=0;exitDy=0;entryX=0.5;entryY=0;entryDx=0;entryDy=0;strokeColor=default;align=center;verticalAlign=middle;fontFamily=Helvetica;fontSize=11;fontColor=default;labelBackgroundColor=default;endArrow=classic;" edge="1" parent="1" source="PMYgWYwYD3wslZIbUrf8-7" target="PMYgWYwYD3wslZIbUrf8-4">
          <mxGeometry relative="1" as="geometry" />
        </mxCell>
        <mxCell id="PMYgWYwYD3wslZIbUrf8-10" style="edgeStyle=none;rounded=0;orthogonalLoop=1;jettySize=auto;html=1;exitX=0.75;exitY=1;exitDx=0;exitDy=0;entryX=0.5;entryY=0;entryDx=0;entryDy=0;strokeColor=default;align=center;verticalAlign=middle;fontFamily=Helvetica;fontSize=11;fontColor=default;labelBackgroundColor=default;endArrow=classic;" edge="1" parent="1" source="PMYgWYwYD3wslZIbUrf8-7" target="PMYgWYwYD3wslZIbUrf8-6">
          <mxGeometry relative="1" as="geometry" />
        </mxCell>
        <mxCell id="PMYgWYwYD3wslZIbUrf8-7" value="BaseClass&lt;div&gt;(rename ?)&lt;/div&gt;" style="rounded=0;whiteSpace=wrap;html=1;fontFamily=Helvetica;fontSize=11;fontColor=default;labelBackgroundColor=default;" vertex="1" parent="1">
          <mxGeometry x="580" y="100" width="120" height="60" as="geometry" />
        </mxCell>
        <mxCell id="PMYgWYwYD3wslZIbUrf8-11" value="serial&lt;div&gt;(from github)&lt;/div&gt;" style="rounded=0;whiteSpace=wrap;html=1;fontFamily=Helvetica;fontSize=11;fontColor=default;labelBackgroundColor=default;" vertex="1" parent="1">
          <mxGeometry x="580" y="460" width="120" height="60" as="geometry" />
        </mxCell>
      </root>
    </mxGraphModel>
  </diagram>
</mxfile>
